<?xml version="1.0" encoding="UTF-8"?>
<svg version="1.1" viewBox="0 0 2048 1365" width="300" height="200" xmlns="http://www.w3.org/2000/svg">
<path transform="translate(759,306)" d="m0 0h11l16 4 10 6 10 10 7 10 9 17 6 19 4 24v28l-4 25-7 25-8 20-14 28-2 5 9-3 12-8 12-9 15-13 8-7 9-9 8-7 12-12 7-8 8-9 8-13 4-13 1-10-3-6-1-1h-13l-17 6-28 14h-5l1-5 10-7 15-8 17-6 6-1h17l6 3 5 6 1 2v16l-5 12-7 12-9 12-11 13-14 15-7 8-6 5-1 2h-2l-2 4-17 17 8-1 30-9 21-4h15v2l-18 5-21 6-24 10-4 2 27-1h47l9 1 4 3v2l-55 4-22 3-15 3-7 2 6 8 10 11 5 9 1 9-3 6-3 3h-17l-12-5-5-2-2 7-5-2-6-8-5-1-2 4-3 5 1 4 28 13 19 11 12 9 9 8 1 8-4 1-9-6-15-12-15-10-18-10h-2l4 5 10 8 11 9 8 8 2 4v6l-5 1-7-5-5-6-8-7-10-9-16-12-5-3-4-1v8l3 12 9 15v4l-7 1-5-2-6-9-8-24h-5l-2 3-1 15-1 43-3 7-4 1-5-5-3-6-1-8v-19l1-12 3-10v-10l-5-5-3-1h-8l-10 5-9 7-5 4-9 11-11 15-13 21-17 28-15 26-17 28-10 16-10 14-8 10-12 12-13 8-16 6-15 4-18 3-12 1h-33l-18-2-15-3-16-5-12-5-17-9-13-10-11-11-8-13-3-8-1-8v-20l1-19 4-21 10-24 11-22 14-21 8-11 14-17 20-20 14-11 13-9 14-8 17-8 20-7 20-4 19-1h18l25 1 28 4 32 7 36 11 15 4h15l18-5 6-3v-2h-21l-2-1 1-5 8-6 6-4 3-7 2-10 1-34-1-20-5-22-6-18-9-19-11-18-8-10-3-1-6 12-2 7-2 21v33l2 19 7 25 6 17-1 4-4-1-6-12-5-15-7-27-3-18-1-10v-16l3-19 8-31-2-5-9-9-13-8-14-6-9-2h-9l-11 4-6 5-7 11-3 7-1 5v14l2 15 6 22 6 15 8 16 12 17 11 13 13 13 15 11 9 6 3 5-5 5-4 2h-12l-10-3-11-7-10-9-14-14-10-13-11-18-8-16-7-21-2-9-1-10v-18l2-14 7-16 10-13 10-8 13-5 5-1h15l15 3 13 5 11 6 12 8 7-6 7-8 8-7 10-6 12-4zm-2 11-14 4-11 6-11 9-6 7 2 6 10 16 12 17 8 14 6 13 6 21 3 23 1 23 1 48 3 6 4-1 6-8 12-22 6-15 6-20 5-24 3-29v-18l-4-31-6-20-7-11-7-7-11-5-8-2zm66 238-5 5-2 7 1 5 5-1 6-4 8 4-1-9-4-7zm-87 4-3 3-3 9v7l6-1 16-7 9-5 2-3-2-2-4-1zm-141 11-18 3-17 6-19 9-17 10-15 10-17 13-10 9-13 13-13 17-6 10-2 7v6l4 7 7 4h14l6-3 7-6 11-14 10-13 13-18 10-13 14-14 14-11 10-8 13-10 10-7 7-5v-2z" fill="#16398E"/>
<path transform="translate(615,552)" d="m0 0h22l21 3 25 6 24 8 7 4 2 4 1 10-2 4-16 10-15 10-14 10-14 11-14 12-7 7-8 7-11 12-9 11-12 14-9 11-11 12-7 8-19 19-16 12-17 10-16 7-17 5-7 1h-14l-16-4-12-6-7-6-9-14-5-15-2-10v-13l4-20 6-15 8-16 8-12 7-9 9-10 5-5h2v-2l8-7 17-13 16-11 15-9 16-9 15-7 24-8 24-5zm-20 18-18 3-17 6-19 9-17 10-15 10-17 13-10 9-13 13-13 17-6 10-2 7v6l4 7 7 4h14l6-3 7-6 11-14 10-13 13-18 10-13 14-14 14-11 10-8 13-10 10-7 7-5v-2z" fill="#FEDD11"/>
<path transform="translate(557,525)" d="m0 0h18l25 1 28 4v1l-35 1-23 3-18 4-23 8-19 9-22 13-16 11-16 13-10 9-14 14-8 10-9 12-9 16-7 16-5 19-1 7v18l3 14 5 14 9 16 8 9 10 8 14 8 15 5 10 2h26l21-5 13-5 17-9 14-10 15-13 7-7 9-11 9-10 18-22 12-14 40-40 8-7 12-11 11-7v3l-9 10-12 18-12 19-19 32-14 24-15 25-18 27-9 11-12 12-13 8-16 6-15 4-18 3-12 1h-33l-18-2-15-3-16-5-12-5-17-9-13-10-11-11-8-13-3-8-1-8v-20l1-19 4-21 10-24 11-22 14-21 8-11 14-17 20-20 14-11 13-9 14-8 17-8 20-7 20-4z" fill="#FDFBB6"/>
<path transform="translate(615,552)" d="m0 0h22l21 3 25 6 24 8 7 4 2 4 1 10-2 4-16 10-15 10-14 10-14 11-14 12-7 7-8 7-11 12-9 11-12 14-9 11-11 12-7 8-19 19-16 12-17 10-16 7-17 5-7 1h-14l-16-4-12-6-7-6-9-14-5-15-2-10v-13l4-20 6-15 8-16 8-12 7-9 9-10 5-5h2v-2l8-7 17-13 16-11 15-9 16-9 15-7 24-8 24-5zm10 2-19 1-25 4-15 4-25 9-7 3-19 10-19 12-18 13-11 9-15 14-9 11-11 16-7 14v7l3 4 3 11 3 6 7 11 5 5 3 4 8 4 7 4 4 1h22l15-4 16-8 10-6 16-13 11-9 11-11 10-8 4-3v-2l4-2 8-7 8-8v-2l4-2 4-5 8-7 5-6 7-5v-2l5-2 7-6 9-7 10-8v-2h2v-2h2l5-7 4-4 4-8 2-5 1-1v-5l-5-3-24-5-17-2z" fill="#FB910F"/>
<path transform="translate(586,561)" d="m0 0h3l18 3 5 1h8l10-2 2 1v3l3 4v2h-2l1 8-2 8-6 8-12 14-7 8-4 2v2l-10 8-10 9-5 5-10 9-8 7-6 6h-2v2l-14 14-10 8-1 2-6 3-3 3-11 5-12 3-5-1v-1l-6-1v-2l-20-1-12-6-4-4-1-6v-15l5-13 10-15 11-12 10-10 20-15 14-10 11-7 13-7h3v-2l15-6 5-3 10-4 9-4zm9 9-18 3-17 6-19 9-17 10-15 10-17 13-10 9-13 13-13 17-6 10-2 7v6l4 7 7 4h14l6-3 7-6 11-14 10-13 13-18 10-13 14-14 14-11 10-8 13-10 10-7 7-5v-2z" fill="#FEEE1E"/>
<path transform="translate(1380,740)" d="m0 0 7 1 3 9 2 16 2 29v7l4-4 11-20 11-23 7-11 3-3 9-1 2 1-2 6-8 17-12 22-11 20-10 15-4 4h-6l-5-6-3-48-1-8-5 8-8 15-10 21-7 11-7 7-5-1-4-5-4-20-3-28-2-21v-9h12l1 1 3 19 2 25 3 14 15-29 8-17 8-12z" fill="#183B8F"/>
<path transform="translate(802,706)" d="m0 0h20l9 2 9 5 7 6 6 10 3 7 1 7-3 1h-7l-5-3-9-14-8-6-7-2h-13l-10 3-9 5-10 9-6 9-4 9-2 9v25l4 10 6 8 8 5 7 2h15l11-4 10-7 4-6 5-10 2-1h8l3 3-2 10-7 11-7 7-9 6-10 3-9 1h-12l-13-2-12-6-5-4-7-10-5-12-1-5v-25l5-17 6-12 8-10 10-8 12-6z" fill="#183B8F"/>
<path transform="translate(1132,710)" d="m0 0h62l7 3 7 9 3 8v19l-4 10-8 9-8 4-10 2-45 3-3 1-8 33-6 12-2 2h-5l-2-2v-12l3-16 5-26 10-48 3-10zm12 10-5 23-1 6v11l4 3 8 1h16l13-1 9-3 6-7 3-12v-9l-3-8-4-2-21-2z" fill="#183B8F"/>
<path transform="translate(1487,738)" d="m0 0h13l11 3 9 7 6 12 1 5v14l-4 5-10 1-39 1-12 1v8l3 9 4 5 10 4h9l8-3 8-6 6-5h12l-2 6-6 9-7 6-9 4-16 2-12-1-9-4-5-5-5-8-3-10v-16l4-14 5-10 9-10 9-6 8-3zm-1 14-8 3-10 9-3 6 2 2 12 2h25l10-2 1-5-4-8-6-5-5-2z" fill="#1A3C90"/>
<path transform="translate(1259,738)" d="m0 0h18l10 4 8 7 5 8 3 11v12l-3 13-6 12-9 10-7 6-11 4-15 1-12-3-8-6-7-8-3-7v-23l4-13 6-10 10-10 8-5zm2 13-10 4-8 8-8 16-2 7v8l4 9 7 8 7 3h12l10-5 5-4 6-9 4-11v-20l-5-8-5-4-6-2z" fill="#193B8F"/>
<path transform="translate(1056,738)" d="m0 0 1 2-10 17-16 28-17 29-16 26-8 11-8 7-2 1h-16l-2-6 4-4 12-4 8-7 6-11v-17l-8-42-4-19v-7l1-1h11l3 5 4 23 4 26 2 8 3-3 15-28 11-19 7-9 4-3z" fill="#183B8F"/>
<path transform="translate(946,715)" d="m0 0 5 2 1 1v21l13 2 1 3-5 5-10 3-4 4-5 20-3 17v18l13 3-1 7-4 4h-15l-6-3-4-4v-16l6-28 2-21-7-3-1-1v-6l5-4 8-5 6-14z" fill="#1A3C90"/>
<path transform="translate(1560,1194)" d="m0 0h12l11 4 6 4 6 5 6 9 2 5 1 6v8l-2 9-5 9-7 8-7 5-8 3h-21l-12-5-9-8-5-8-2-6-1-7v-9l3-10 4-6 4-5 10-7 8-3zm-4 4-10 4-8 6-6 9-2 6v18l6 12 7 7 8 4 4 1h19l8-3 8-6 7-10 3-8v-14l-2-4h-1v12l-2 9-6 9-8 6-5 2-12 1-12-3-9-7-5-9-1-4v-16l4-8 8-7 11-4h20l-2-2-3-1zm24 3m2 1m-21 2-9 3-7 6-4 10v11l3 9 7 7 9 4 9 1 9-2 6-4 6-7 2-5v-16l-4-8-7-6-3-2-5-1z" fill="#ECECEE"/>
<path transform="translate(1593,737)" d="m0 0h7l1 5-3 5-8 5-14 7-8 9-5 12-7 26-5 14-4 5h-5l-2-2v-9l5-25 6-29 4-18 2-2h6l4 3 2 6 7-4 10-6z" fill="#183B8F"/>
<path transform="translate(1714,1209)" d="m0 0h9l4 5 8 21 3 10h2l2-9 10-25 2-2h10l2 7v42l-7 1-2-1-1-36-11 28-3 8-3 1-4-2-12-31-2-5-1 37-5 1-3-2v-47z" fill="#FBFBFB"/>
<path transform="translate(1520,982)" d="m0 0h8l10 5 5 6 4 11 2 16-2 7-5 3h-19l-6-4-3-4-2-6-1-14 2-13 5-6zm5 22-4 4v9l4 7 6 1 5-6v-8l-6-7z" fill="#B2BACD"/>
<path transform="translate(1564,1206)" d="m0 0h8l9 4 5 5 4 8v10l-4 8-5 5-5 3h-16l-6-3-6-7-2-5v-14l6-8 5-4zm-1 6-6 3-4 5-1 10 2 6 4 5 4 2 7 1 7-2 6-6 1-3v-12h-1l-2 12-6 4h-9l-5-4-1-3v-9l5-5 9-1 4-1-3-2zm16 5m2 2 1 2z" fill="#F0F1F2"/>
<path transform="translate(964,1092)" d="m0 0h11l8 3 7 7 9 15 9 17 2 5v8l-8 6-10 3-2-3-2-20-3-12-6-9-15-10-2-6z" fill="#B3BACD"/>
<path transform="translate(1308,994)" d="m0 0h27l5 3 5 6 2 5v13l-4 7-15 8-6 5-6-2-4-8-3-16zm17 7-4 5-1 4 3 9 5 5 4 1 4-4v-11l-3-6-3-3z" fill="#B2BACD"/>
<path transform="translate(594,528)" d="m0 0h21l13 2v1l-35 1-23 3-18 4-23 8-19 9-22 13-16 11-16 13-10 9-14 14-8 10-9 12-9 16-7 16-5 19-1 7v18l3 14 5 14 9 16 8 9 10 8 14 8 15 5 10 2h26l21-5 13-5 17-9 7-5 2 1-11 8-16 8-15 6-11 3-8 1h-26l-10-2-15-5-11-6-11-8-9-9-8-13-5-10-5-15-3-14v-11l3-18 4-14 6-14 10-17 9-12 11-12 9-10 8-7 7-7 13-10 18-12 16-10 11-6 13-6 20-8 14-4 24-4z" fill="#A4A4A4"/>
<path transform="translate(1245,1126)" d="m0 0h15l13 4 9 7 6 7 5 10v6l-5-1-9-7-8-7-8-4-3-1h-12l-12 6-6 8-3 6h-5l-3-3 1-9 5-10 4-5 8-5z" fill="#B3BBCD"/>
<path transform="translate(1181,993)" d="m0 0h8l8 3 5 4 6 10v11l-6 7-4 2h-14l-6-3-5-6-2-5v-12l3-6 4-4z" fill="#B2BACD"/>
<path transform="translate(885,741)" d="m0 0h8l1 1v12l-4 23-6 25-4 13-5 9-1 1h-5l-1-1v-11l4-23 5-23 5-22z" fill="#173A8F"/>
<path transform="translate(966,993)" d="m0 0h14l7 3 4 8 2 15-3 7-5 4h-12l-7-6-8-14-1-3v-8l4-4z" fill="#B2BACD"/>
<path transform="translate(785,1126)" d="m0 0h20l12 3 8 6 7 8 4 8v5l-4-1-13-10-11-5-11-3h-8l-14 5-11 8-8 5-2-1 1-8 8-11 9-6 6-2z" fill="#B2BACD"/>
<path transform="translate(1531,918)" d="m0 0 13 1 9 4-2 14-7 23-6 10-4 2h-19l-2-1-1-7 1-2 9 2 10 1 5-5 1-3-12-1-6-3-5-6-1-6 2-9 6-9 6-4zm2 7-7 3-4 4-1 3v9l4 5 4 2 6-1 4-4 3-9v-7l-3-4z" fill="#284896"/>
<path transform="translate(1852,1206)" d="m0 0h7v52l-1 1h-5l-2-4-5 4h-12l-6-3-5-7-2-11 3-10 5-5 5-3h10l6 3 1-16zm-15 20-5 4-2 5v9l3 6 4 3 8-1 5-5 1-10-3-7-3-3z" fill="#FAFAFA"/>
<path transform="translate(1474,1125)" d="m0 0h8l14 3 10 6 6 8-1 4-9-1-11-5-4-1h-12l-7 3-5 5-7 11-2 2h-5l-2-2v-8l5-12 6-8 5-3z" fill="#B3BBCE"/>
<path transform="translate(1560,1200)" d="m0 0h16l9 2 8 10 4 8 1 12-2 9-6 9-7 6-7 3-12 1-12-3-9-7-6-10-1-4v-16l4-8 9-8zm1 4-9 3-7 6-4 10v11l3 9 7 7 9 4 9 1 9-2 6-4 6-7 2-5v-16l-4-8-7-6-3-2-5-1z" fill="#EEEEF0"/>
<path transform="translate(1322,908)" d="m0 0 5 1-1 7-1 4 7-2h8l5 3 3 5 1 11-1 10-4 6-5 4-2 1h-17l-7-3-1-1v-7l5-22 2-11zm9 18-5 3-3 5-2 8 1 8 3 4h7l7-5 3-5 1-10-3-6-3-2z" fill="#ACB5CB"/>
<path transform="translate(1193,918)" d="m0 0h7l5 3 3 4v15l-6 2-19 2 3 7 2 1h6l10-7 4-1-1 6-4 5-5 3-4 1h-9l-6-4-4-6-1-3v-7l4-10 5-5 5-4zm-2 8-5 3-2 2v3l2 1h8l8-2-1-6-3-1z" fill="#B6BDCF"/>
<path transform="translate(1249,993)" d="m0 0h11l7 3 3 6-1 11-5 14-4 3h-11l-2-1-1-3v-18l-3-5v-7z" fill="#B2BACD"/>
<path transform="translate(1392,993)" d="m0 0h18l4 2 4 8 2 9v11h-6l-7-9-4-6-5-2-4 9-3 8-5-1-3-7v-16l5-5z" fill="#B2BACD"/>
<path transform="translate(978,918)" d="m0 0h8l6 4 1 2v26l-1 8-22 1-7-2-4-6v-7l4-5 8-3 13-3 3-2v-5l-2-1h-7l-8 5h-4l1-5 4-4zm2 22-10 2-3 2 1 7 3 3h6l6-4 3-5-1-4z" fill="#B0B8CC"/>
<path transform="translate(1682,1220)" d="m0 0h12l6 3 4 5v5h-5l-8-6h-6l-3 2 1 5 14 3 7 4 2 5-1 7-5 5-8 2-11-1-6-5-2-4v-6l5 2 8 6h7l3-1v-6l-2-1-14-2-5-3-2-4 1-8 5-5z" fill="#F8F8F9"/>
<path transform="translate(1638,1220)" d="m0 0 9 2 3-2h10l5 3 4 5 1 4 1 24-2 3-7-1-1-24-2-5-2-1-9 1-2 3-1 26-6 1-3-2v-28l1-8z" fill="#F7F7F8"/>
<path transform="translate(1785,1220)" d="m0 0 5 1 4 1 3-2h11l7 6 2 5v27l-5 1-3-1-1-24-2-5-2-1-9 1-2 4-1 25-5 1-3-1-1-7v-18l1-12z" fill="#F8F9F9"/>
<path transform="translate(836,918)" d="m0 0 9 1 6 5 2 4v16l-3 6-4 5-5 3-4 1h-9l-6-3-3-5-1-6v-8l3-9 5-6zm0 8-8 4-3 5-1 9 3 7 4 3 7-1 5-5 2-4 1-13-3-5z" fill="#294996"/>
<path transform="translate(888 1e3)" d="m0 0 4 2 10 17 6 1 3-5 3-9 4 1 3 5 1 9-6 8-12 6-3 1h-7l-3-3-3-8-1-22z" fill="#B3BBCD"/>
<path transform="translate(900,908)" d="m0 0h4l-1 10-1 2 4-1h12l5 4 2 6-1 12-4 13-4 1-1-1v-10l1-17-1-1-8 1-5 4-4 10-4 13-4 1-1-3 3-19 4-16z" fill="#B1B9CC"/>
<path transform="translate(822,994)" d="m0 0h13l6 3 6 7 2 5v13l-5 5-3-1-1-17-2-5-2-1h-6l-4 4-1 9 1 10-2 1-5-3-6-12v-9l4-6z" fill="#B2BACD"/>
<path transform="translate(1259,918)" d="m0 0h8l7 3 3 5-1 5-6-2-3-2h-9l1 5 9 7 5 5v8l-5 6-5 1h-9l-7-2-1-1v-11l4 2 9 5h8v-5l-10-7-6-5-2-3v-6l5-6z" fill="#325099"/>
<path transform="translate(1100 1e3)" d="m0 0 6 1 10 17 4 3 3-1 2-7 1-13 6 1 1 4v15l-3 7-4 2h-20l-3-4-3-12z" fill="#B2BACD"/>
<path transform="translate(1123,918)" d="m0 0h8l5 2 1 5v12l-2 12-2 3h-3v-26l-1-1h-7l-5 5-4 8-5 19-5 1-1-1 1-14 5-15 4-6 6-3z" fill="#304E99"/>
<path transform="translate(1052,918)" d="m0 0h7l5 2 1 4v15l-2 11-4 3-1-1v-25l-1-2h-7l-5 4-4 9-5 19-5 1-1-2 2-14 3-11 4-8 5-3z" fill="#2C4B97"/>
<path transform="translate(1336,1129)" d="m0 0 7 1 5 4 3 6 1 10-4 3-12 5-5-1-3-9v-12l2-4z" fill="#B3BBCE"/>
<path transform="translate(1031 1e3)" d="m0 0 3 2 5 10 7 8 5 1 2-7 1-13 4-1 3 2v20l-3 5-4 2h-21l-2-3z" fill="#B2BACD"/>
<path transform="translate(753,993)" d="m0 0h10l6 4 5 8 3 9 1 6v12h-3l-4-6-8-16-2-3-13-2-3-2 1-5 5-4z" fill="#B2BACD"/>
<path transform="translate(1388,1128)" d="m0 0 6 1 5 6 3 7v8l-4 3-7 3-5 5-4-4-2-6v-12l4-8z" fill="#B2BACD"/>
<path transform="translate(594,528)" d="m0 0h21l13 2v1l-35 1-23 3-18 4-23 8-19 9-22 13-16 11-16 13-10 9-14 14-8 10-7 9h-2l2-5 11-13 8-8 5-6 8-7 7-7 13-10 18-12 16-10 11-6 13-6 20-8 14-4 24-4z" fill="#A4A4A4"/>
<path transform="translate(783,907)" d="m0 0 2 1-1 8-6 25-4 9-6 7-6 2-12-1-2-1-1-5v-9h3l6 7 3 2h5l4-5 4-13 6-22 2-4z" fill="#2E4D98"/>
<path transform="translate(1567,1214)" d="m0 0 9 1 5 4 1 2v8l-2 5-6 4h-9l-6-5-1-3v-9l6-6z" fill="#F9F9F9"/>
<path transform="translate(699,619)" d="m0 0v3l-6 7-7 4-10 9-8 7-12 12-8 7-3 3h-2l-2 4-15 15-1 2h-2l-2 4-13 15-8 10-12 14-11 12-8 8-14 11-2-1 13-11 10-9 10-11 7-8 9-11 14-17 12-14 40-40 8-7 12-11z" fill="#A4A4A4"/>
<path transform="translate(615,552)" d="m0 0h22l21 3v2l-12-1-10-1h-11l-19 1-25 4-15 4-25 9-7 3-19 10-19 12-18 13-11 9-6 5-1-2 8-7 17-13 16-11 15-9 16-9 15-7 24-8 24-5z" fill="#EA942B"/>
<path transform="translate(1455 1e3)" d="m0 0h5l6 9 8 17v4h-14l-3-6-3-15v-7z" fill="#B2BACD"/>
<path transform="translate(1771,1220)" d="m0 0h6l2 1v37l-1 1-7-1-1-1v-36z" fill="#F2F2F2"/>
<path transform="translate(1469,921)" d="m0 0h13l1 2-8 5-5 7-7 19-5 1-1-3 6-26 2-4z" fill="#35539B"/>
<path transform="translate(1109,1130)" d="m0 0h6l3 4 4 13v12l-4 1-5-5-5-11-1-3v-9z" fill="#B3BBCD"/>
<path transform="translate(1624,1221)" d="m0 0h8v37l-1 1h-6l-1-1z" fill="#F1F1F2"/>
<path transform="translate(928,1130)" d="m0 0h14l-1 6-7 9-6 7-4 1-2-3v-15z" fill="#B3BACD"/>
<path transform="translate(1915,1241)" d="m0 0h18l5 2 1 2v13l-4 1-1-1-1-12-4-1v12l-4 2-2-2v-12h-5v13l-4 1-1-1v-15z" fill="#E0E2E8"/>
<path transform="translate(1543,1130)" d="m0 0 5 5 4 11 1 13-1 1h-5l-6-8-1-2v-17z" fill="#B3BBCD"/>
<path transform="translate(1259,918)" d="m0 0h8l7 3 3 5-1 5-6-2-3-2h-9l1 5 7 5-2 1-6-2-6-4v-6l-1-3 5-4z" fill="#ACB5CB"/>
<path transform="translate(900,908)" d="m0 0h4v6l-2 3v7l-4 9-2 4v12l-3 6-4-1 3-21 4-16z" fill="#214293"/>
<path transform="translate(836,918)" d="m0 0 9 1-2 1v3h2l2 3 2 11-2 7-2 5-7 6h-8l-5-3-2-6v-9l4-10 3-7zm0 8-8 4-3 5-1 9 3 7 4 3 7-1 5-5 2-4 1-13-3-5z" fill="#B6BDCF"/>
<path transform="translate(1531,918)" d="m0 0 13 1 9 4-1 9h-1v-7h-6l-1 2-1 16-6 9-4 1-9-2-2-1-2-5v-9h1l2 10 6 4 6-1 3-1 3-11v-7l-2-3-6-1-5 1 2-5-4-2z" fill="#A7B1C8"/>
<path transform="translate(594,528)" d="m0 0h21l13 2v1l-35 1-23 3-18 4-15 5-3-1 5-3 18-6 28-5z" fill="#A4A4A5"/>
<path transform="translate(1421,921)" d="m0 0 3 3-3 15-5 13-2 3h-6l-1-2 5-12 5-17z" fill="#2E4D98"/>
<path transform="translate(1186,921)" d="m0 0h2l-2 6-3 1-1 7v3l-1 4-2 1 1 6-1 2h3l1 2 5 2 12-1v3l-6 2h-9l-6-4-4-6-1-3v-7l4-10 5-5z" fill="#2C4B97"/>
<path transform="translate(1394,924)" d="m0 0h2l-1 21 1 7 6 4-1 3-10-1-2-4v-19l2-8z" fill="#2F4E98"/>
<path transform="translate(893,707)" d="m0 0h7l4 5-2 7-4 4h-9l-2-4 1-7z" fill="#1C3E91"/>
<path transform="translate(919,921)" d="m0 0 4 2 2 6-1 12-4 13-4 1-1-5 2-8 1-20z" fill="#204192"/>
<path transform="translate(1899,1241)" d="m0 0 8 1 3 4v7l-5 6h-7l-4-3-1-8 2-5zm0 4-1 2v8l4 1 3-3v-6l-2-2z" fill="#E2E4EA"/>
<path transform="translate(1880,1241)" d="m0 0h7l3 3 1 4v7l-4 4h-8l-5-5-1-6 3-5zm1 4-3 3 1 6 1 1 7-1 1-6-2-3z" fill="#DFE1E7"/>
<path transform="translate(1342,921)" d="m0 0 4 1 2 4 1 11-1 10-4 6-5 4-2 1h-9v-1l7-2 4-2 2-4h2l-1-3 1-6v-10l-1-4v-4z" fill="#224393"/>
<path transform="translate(986,920)" d="m0 0 5 1 2 3v14l-2 14-3 3-3-1-1-7 2-4v-6l2-4v-9z" fill="#1B3D90"/>
<path transform="translate(758,607)" d="m0 0 5 1 1 4-2-2h-5l-2 3-1 15-1 39h-1l-2-11v-32l2-12 3-4z" fill="#C0C7D6"/>
<path transform="translate(1132,920)" d="m0 0h4l1 5v12l-2 12-2 3h-3v-11l2-10z" fill="#2C4B96"/>
<path transform="translate(1061,920)" d="m0 0h3l1 4v15l-2 11-4 3-1-1v-13l2-3v-14z" fill="#2A4A96"/>
<path transform="translate(615,552)" d="m0 0h22l21 3v2l-12-1-10-1h-11l-19 1-14 1 3-3z" fill="#F2921D"/>
<path transform="translate(700,474)" d="m0 0 2 4 8 23-1 4-4-1-6-12-2-7h3z" fill="#B2BACD"/>
<path transform="translate(978,918)" d="m0 0h8l2 2v3l1 1v6l-2-4-2-1h-7l-8 5h-4l1-5 4-4z" fill="#ADB6CB"/>
<path transform="translate(1322,908)" d="m0 0 5 1-1 5-3 5 1 5-4 10h-3v3h-2l1-8 3-15z" fill="#2E4D98"/>
<path transform="translate(532,574)" d="m0 0h2l-1 3-16 8-18 11-14 10-12 9-10 9-3 1v-2l8-7 17-13 16-11 15-9z" fill="#F79114"/>
<path transform="translate(611,705)" d="m0 0v3l-7 8-9 11-9 10-7 8-10 10-14 11-2-1 13-11 10-9 10-11 7-8 9-11z" fill="#A4A4A4"/>
<path transform="translate(1052,918)" d="m0 0h7l4 2h-2v16l-2 2-1-11-1-2h-7l-6 4 2-5-5-2 3-2z" fill="#B0B8CC"/>
<path transform="translate(868,1133)" d="m0 0 7 1 2 2v11l-4 2-5-5-1-3v-7z" fill="#B4BCCE"/>
<path transform="translate(1529,986)" d="m0 0 1 2 3 1v2l4 2 1 7-5 1-6-2-3-2v-5l3-3h2z" fill="#A4A4A4"/>
<path transform="translate(1123,918)" d="m0 0h8l3 2h-2l1 11-1 8h-1l-1-13-1-1h-7l-5 5-2 1 2-6 1-2-4-2z" fill="#B1B9CC"/>
<path transform="translate(893,932)" d="m0 0 2 3 1 2v12l-3 6-4-1 3-21z" fill="#33519A"/>
<path transform="translate(699,619)" d="m0 0v3l-6 7-7 4-6 5-3-1 4-5 13-10z" fill="#A8ABB1"/>
<path transform="translate(1200,919)" d="m0 0 4 1 4 5v15h-3l-1-7-2-9z" fill="#1B3D90"/>
<path transform="translate(936,505)" d="m0 0h8l2 3-2 5-1 1h-6l-2-3v-5z" fill="#1D3F91"/>
<path transform="translate(1542,932)" d="m0 0h1v11l-6 9-4 1-9-2-2-1-2-5v-9h1l2 10 6 4 6-1 3-1z" fill="#B2BACD"/>
<path transform="translate(1771,1206)" d="m0 0h7l1 2v6l-1 1h-7l-1-1v-7z" fill="#F4F4F4"/>
<path transform="translate(920,939)" d="m0 0h4l-3 12-2 4-4-1 2-12 3-2z" fill="#234494"/>
<path transform="translate(1624,1206)" d="m0 0h6l2 1v7l-7 1-2-1v-7z" fill="#F5F6F6"/>
<path transform="translate(785,553)" d="m0 0 4 1 1 4-3 2h-7l-2-1 1-4z" fill="#B2BACD"/>
<path transform="translate(789,601)" d="m0 0 7 1 7 3-2 2 2 4-6-2-8-6z" fill="#B2BACD"/>
<path transform="translate(1249,948)" d="m0 0 4 1 6 3h8l-3 3h-11l-3-2z" fill="#B4BBCB"/>
<path transform="translate(595,568)" d="m0 0h9l-1 3-7 4-2-1 4-4-11 2h-5l2-2z" fill="#FEFCB7"/>
<path transform="translate(532,574)" d="m0 0h2l-1 3-16 8-8 5h-2v-2l23-13z" fill="#F4921A"/>
<path transform="translate(606,528)" d="m0 0h9l13 2v1h-28l3-2z" fill="#B2BACD"/>
<path transform="translate(824,935)" d="m0 0 1 4 1 9 5 5 7-1 4-2-1 3-3 2h-8l-5-3-2-6v-9z" fill="#B1B8CA"/>
<path transform="translate(960,949)" d="m0 0 3 1v2l5 2 2 1v2l4 1h-9l-5-5z" fill="#284896"/>
<path transform="translate(763,522)" d="m0 0 2 2 2 5 5-1-2 4-4 1-4-2z" fill="#BFC6D5"/>
<path transform="translate(846,931)" d="m0 0 2 1 1 5-2 7-2 5-3 1 3-12z" fill="#B3BBCE"/>
<path transform="translate(1474,926)" d="m0 0 3 1-5 5-4 8-2-4 3-6 2-3z" fill="#B2BACD"/>
<path transform="translate(699,619)" d="m0 0v3l-6 7-5 2 2-6z" fill="#B3BBCD"/>
<path transform="translate(843,513)" d="m0 0 2 1-5 5 4 2-7 2-4-1 5-5z" fill="#B2BACD"/>
<path transform="translate(1114,931)" d="m0 0 1 2-5 15-2 1 2-14z" fill="#B2BACD"/>
<path transform="translate(604,553)" d="m0 0 3 1-1 2-14 1 3-3z" fill="#ED9325"/>
<path transform="translate(844,530)" d="m0 0h18v1l-12 2h-8z" fill="#B2BACD"/>
<path transform="translate(705,498)" d="m0 0 4 1 1 5-4 1-2-2z" fill="#536BA7"/>
<path transform="translate(920,939)" d="m0 0h4l-3 12-2-2 1-6-2-1 2-2z" fill="#B2BACD"/>
<path transform="translate(1867,1251)" d="m0 0 3 1 1 7-5-1z" fill="#D8DADD"/>
<path transform="translate(1039,940)" d="m0 0 1 2-3 12-2-1v-7z" fill="#B2BACD"/>
<path transform="translate(1588,1206)" d="m0 0 4 2 6 9-1 3-7-11z" fill="#ACB0BB"/>
<path transform="translate(1542,932)" d="m0 0h1v11l-3 4-2-1 3-9z" fill="#B4BCCE"/>
<path transform="translate(594,528)" d="m0 0h12l-3 2-8 1z" fill="#A5A5A7"/>
<path transform="translate(1883,1248)" d="m0 0 1 3-2 1z" fill="#12368D"/>
</svg>
